<!--
 Copyright (C) 2025 Jason Norwood-Young
 
 This program is free software: you can redistribute it and/or modify
 it under the terms of the GNU Affero General Public License as
 published by the Free Software Foundation, either version 3 of the
 License, or (at your option) any later version.
 
 This program is distributed in the hope that it will be useful,
 but WITHOUT ANY WARRANTY; without even the implied warranty of
 MERCHANTABILITY or FITNESS FOR A PARTICULAR PURPOSE.  See the
 GNU Affero General Public License for more details.
 
 You should have received a copy of the GNU Affero General Public License
 along with this program.  If not, see <https://www.gnu.org/licenses/>.
-->

<svg
class="size-5 shrink-0"
fill="none"
viewBox="0 0 24 24"
stroke-width="1.5"
stroke="currentColor"
>
<path
    stroke-linecap="round"
    stroke-linejoin="round"
    d="M7.5 8.25h9m-9 3H12m-9.75 1.51c0 1.6 1.123 2.994 2.707 3.227 1.129.166 2.27.293 3.423.379.35.026.67.21.865.501L12 21l2.755-4.133a1.14 1.14 0 01.865-.501 48.172 48.172 0 003.423-.379c1.584-.233 2.707-1.626 2.707-3.228V6.741c0-1.602-1.123-2.995-2.707-3.228A48.394 48.394 0 0012 3c-2.392 0-4.744.175-7.043.513C3.373 3.746 2.25 5.14 2.25 6.741v6.018z"
/>
</svg> 