<!--
 Copyright (C) 2025 Jason Norwood-Young
 
 This program is free software: you can redistribute it and/or modify
 it under the terms of the GNU Affero General Public License as
 published by the Free Software Foundation, either version 3 of the
 License, or (at your option) any later version.
 
 This program is distributed in the hope that it will be useful,
 but WITHOUT ANY WARRANTY; without even the implied warranty of
 MERCHANTABILITY or FITNESS FOR A PARTICULAR PURPOSE.  See the
 GNU Affero General Public License for more details.
 
 You should have received a copy of the GNU Affero General Public License
 along with this program.  If not, see <https://www.gnu.org/licenses/>.
-->

<?xml version="1.0" encoding="UTF-8"?>
<svg width="438px" height="438px" viewBox="0 0 438 438" version="1.1" xmlns="http://www.w3.org/2000/svg" xmlns:xlink="http://www.w3.org/1999/xlink">
    <title>Sourcery Logo</title>
    <g id="Page-1" stroke="none" stroke-width="1" fill="none" fill-rule="evenodd">
        <g id="Sourcery-Logo">
            <g id="Circles" stroke="currentColor">
                <circle id="Outer-Circle" stroke-width="25" cx="219" cy="219" r="206.5"></circle>
                <circle id="Central-Circle" stroke-width="22" cx="219" cy="93" r="29"></circle>
                <circle id="Small-Circle" stroke-width="20" cx="73" cy="171" r="18"></circle>
                <circle id="Small-Circle-Copy" stroke-width="20" cx="73" cy="268" r="18"></circle>
                <circle id="Small-Circle-Copy-2" stroke-width="20" cx="364" cy="268" r="18"></circle>
                <circle id="Small-Circle-Copy-3" stroke-width="20" cx="364" cy="171" r="18"></circle>
                <circle id="Small-Circle-Copy-4" stroke-width="20" cx="219" cy="353" r="18"></circle>
            </g>
            <rect id="Rectangle" fill="currentColor" x="211" y="377" width="16" height="38"></rect>
            <path d="M185.322751,264.924745 L194.330408,251.664456 L222.990494,267.235369 C224.28481,268.019119 225.239222,269.00179 225.853731,270.183382 C226.46824,271.364974 226.850368,272.980874 227.000113,275.031081 L227.000113,327.999992 L211,327.999992 L211,278.634593 L185.322751,264.924745 Z" id="Rectangle-Copy" fill="currentColor"></path>
            <rect id="Rectangle-Copy-2" fill="currentColor" x="268" y="143" width="16" height="265"></rect>
            <circle id="Oval" fill="currentColor" cx="317" cy="84" r="14"></circle>
            <circle id="Oval-Copy" fill="currentColor" cx="121" cy="84" r="14"></circle>
            <circle id="Oval-Copy-2" fill="currentColor" cx="161" cy="133" r="14"></circle>
            <circle id="Oval-Copy-3" fill="currentColor" cx="277" cy="133" r="14"></circle>
            <rect id="Rectangle-Copy-3" fill="currentColor" x="153" y="143" width="16" height="265"></rect>
            <rect id="Rectangle-Copy-4" fill="currentColor" x="113" y="93" width="16" height="301"></rect>
            <rect id="Rectangle-Copy-5" fill="currentColor" x="309" y="93" width="16" height="301"></rect>
            <path d="M246.505613,187.834533 C246.037296,188.619305 245.542962,189.207884 245.02261,189.60027 C244.502257,189.992656 243.8258,190.188849 242.993237,190.188849 C242.108638,190.188849 241.080943,189.744145 239.910151,188.854737 C238.739358,187.965328 237.256355,186.984363 235.461141,185.911841 C233.665926,184.839319 231.506465,183.858354 228.982757,182.968945 C226.45905,182.079537 223.401982,181.634832 219.811552,181.634832 C216.429264,181.634832 213.43724,182.092616 210.83548,183.008184 C208.233719,183.923751 206.061249,185.166307 204.31807,186.735852 C202.574891,188.305396 201.261002,190.149611 200.376403,192.268496 C199.491805,194.387381 199.049505,196.6763 199.049505,199.135253 C199.049505,202.274341 199.817025,204.877169 201.352063,206.943736 C202.887102,209.010303 204.916475,210.77604 207.440182,212.240948 C209.96389,213.705856 212.825826,214.974572 216.025991,216.047094 C219.226156,217.119616 222.504374,218.231376 225.860645,219.382375 C229.216916,220.533375 232.495134,221.828249 235.695299,223.266998 C238.895464,224.705747 241.118394,226.153168 243.99969,228.990135 C246.880985,231.827101 247.162404,233.681067 248.697442,236.872474 C250.232481,240.06388 251,243.987742 251,248.644057 C251,250.669215 251,247.024391 251,254.595314 C251,262.166236 236.670959,262.166236 236.670959,254.595314 C236.670959,252.44592 236.794389,251.854937 236.794389,250.841419 C236.794389,247.440739 236.340448,244.154359 234.805409,241.983156 C233.270371,239.811953 232.612213,238.426181 230.114523,236.961273 C227.616833,235.496365 224.767906,234.253809 221.567741,233.233605 C218.367576,232.213401 215.089358,231.167038 211.733087,230.094516 C208.376816,229.021994 205.098598,227.779438 201.898433,226.366848 C198.698268,224.954258 195.84934,223.123123 193.35165,220.873443 C190.853961,218.623762 188.837596,215.811662 187.302558,212.437141 C185.767519,209.062621 185,204.890249 185,199.920025 C185,195.943846 185.767519,192.098462 187.302558,188.383873 C188.837596,184.669285 191.062101,181.373242 193.976073,178.495744 C196.890044,175.618246 200.493482,173.316247 204.786387,171.589748 C209.079291,169.863249 214.009627,169 219.577394,169 C225.821619,169 231.519474,169.994045 236.670959,171.982134 C241.822444,173.970224 246.32349,176.847722 250.174095,180.614629 L246.505613,187.834533 Z" id="Path" fill="currentColor" fill-rule="nonzero"></path>
        </g>
    </g>
</svg>